<?xml version="1.0" encoding="UTF-8"?>
<svg id="Laag_2" xmlns="http://www.w3.org/2000/svg" viewBox="0 0 3108.17 1035.71">
  <defs>
    <style>
      .cls-1 {
        fill: #fff;
      }
    </style>
  </defs>
  <g id="Laag_1-2" data-name="Laag_1">
    <g>
      <path class="cls-1" d="M1250.3,465.56c-18.52-15.33-40.03-26.37-64.53-33.1-24.5-6.74-50.31-10.1-77.43-10.1-10.1,0-20.9.19-32.4.56-11.5.37-22.58.75-33.24,1.12-10.66.37-20.16.75-28.47,1.12-8.33.37-14.26.56-17.82.56-2.06,0-4.77-.04-8.13-.14-3.37-.08-6.64-.23-9.82-.42-3.74-.18-7.76-.37-12.06-.56v1.12c1.12,3.93,2.19,8.89,3.23,14.88,1.02,5.99,1.91,13.32,2.66,22.02.75,8.7,1.3,19.08,1.68,31.14.37,12.07.56,26.05.56,41.94v182.63c0,15.89-.19,29.78-.56,41.66-.38,11.88-.93,22.12-1.68,30.72-.75,8.6-1.64,15.8-2.66,21.6-1.03,5.8-2.1,10.66-3.23,14.59v1.12c5.23,0,12.57.23,22.02.7,9.44.47,19.5.98,30.16,1.55,10.66.56,21.27,1.07,31.84,1.54,10.56.47,19.59.7,27.08.7,20.94,0,41.24-1.68,60.87-5.05,19.64-3.37,38.1-8.7,55.4-15.99,17.3-7.29,33.11-16.59,47.41-27.91,14.3-11.31,26.6-24.92,36.89-40.82,10.28-15.89,18.28-34.23,23.98-54.98,5.7-20.76,8.56-44.14,8.56-70.14,0-36.28-5.42-66.85-16.27-91.73-10.85-24.87-25.52-44.98-44.04-60.32ZM1246.37,693.5c-4.87,18.98-11.55,35.21-20.06,48.67-8.52,13.47-18.43,24.46-29.74,32.96-11.32,8.52-23.38,15.19-36.19,20.06-12.82,4.86-26.09,8.18-39.84,9.96-13.75,1.77-27.17,2.66-40.26,2.66-3.18,0-7.11-.09-11.78-.28-4.68-.18-9.45-.42-14.31-.7-4.86-.28-9.49-.66-13.89-1.13-4.4-.46-7.91-.88-10.52-1.26-.75-11.4-1.4-25.71-1.96-42.92-.56-17.2-.98-35.16-1.26-53.86-.28-18.69-.52-36.93-.7-54.7-.19-17.77-.28-32.92-.28-45.45,0-5.98.04-12.86.14-20.62.09-7.76.18-15.89.28-24.41.09-8.51.18-17.15.28-25.94.09-8.79.23-17.4.42-25.81.38-19.64.75-39.93,1.12-60.87,3.55-.18,8.09-.52,13.61-.98,5.51-.46,11.4-.84,17.67-1.12,6.26-.28,12.57-.56,18.94-.84,6.35-.28,12.06-.42,17.11-.42,25.62,0,48.3,3.98,68.03,11.93,19.73,7.95,36.28,19.59,49.65,34.93,13.37,15.34,23.52,34.18,30.44,56.52,6.92,22.35,10.38,47.83,10.38,76.45,0,25.81-2.43,48.21-7.29,67.19Z"/>
      <path class="cls-1" d="M1555.78,828.71c6.08.09,11.88.23,17.4.42,5.51.18,10.52.37,15.01.57,4.48.18,7.86.37,10.1.56l8.14-45.45c-13.29,3.55-27.97,6.64-44.04,9.26-13.85,2.43-30.02,4.58-48.53,6.44-18.51,1.87-38.81,2.81-60.88,2.81v-175.89c12.53,0,25.62.51,39.28,1.55,13.65,1.03,26.27,2.2,37.87,3.5,13.47,1.5,26.65,3.08,39.55,4.77l8.7-40.68c-9.73,1.5-20.95,2.8-33.67,3.93-10.85.93-24.03,1.87-39.55,2.8-15.52.94-32.92,1.5-52.18,1.68v-153.17c6.92-.37,13.75-.75,20.48-1.12,5.8-.37,11.83-.7,18.1-.98,6.26-.28,11.64-.42,16.13-.42,13.28,0,25.01.51,35.21,1.54,10.19,1.03,18.84,2.1,25.95,3.23,8.23,1.31,15.43,2.8,21.6,4.49l13.75-37.31c-4.87.94-14.12,1.69-27.77,2.24-13.66.57-30.11.98-49.37,1.26-19.27.28-40.44.52-63.54.71-23.1.18-46.34.28-69.71.28v1.12c1.12,3.92,2.2,8.79,3.23,14.59,1.02,5.8,1.91,13.05,2.66,21.74.75,8.7,1.31,18.98,1.68,30.86.38,11.88.57,25.77.57,41.66v182.63c0,15.89-.19,29.78-.57,41.66-.37,11.88-.93,22.12-1.68,30.72-.75,8.6-1.64,15.81-2.66,21.6-1.03,5.8-2.1,10.66-3.23,14.59v1.12h121.19c1.87,0,4.91.04,9.12.14,4.21.09,9.02.18,14.45.28,5.42.09,11.18.18,17.25.27Z"/>
      <path class="cls-1" d="M2236.18,780.89v-11.5c0-12.91.18-24.27.56-34.09.37-9.82.93-18.37,1.68-25.66.75-7.3,1.64-13.61,2.67-18.94,1.03-5.33,2.11-9.96,3.23-13.89v-1.12h-67.33v1.12c1.31,4.31,2.43,8.98,3.37,14.03.93,5.05,1.77,11.08,2.53,18.09.75,7.02,1.31,15.29,1.69,24.83.37,9.53.56,20.85.56,33.94v10.94c0,2.99-1.82,6.31-5.47,9.96-3.65,3.64-9.03,7.01-16.13,10.1-7.11,3.08-15.81,5.66-26.09,7.72-10.29,2.06-21.98,3.08-35.07,3.08-29.55,0-55.4-5.1-77.57-15.29-22.16-10.19-40.63-24.27-55.4-42.22-14.78-17.96-25.9-39.18-33.38-63.68-7.48-24.5-11.22-51.06-11.22-79.67,0-25.99,3.93-49.18,11.78-69.57,7.85-20.38,18.84-37.59,32.97-51.62,14.12-14.03,31-24.73,50.64-32.12,19.63-7.39,41.24-11.08,64.8-11.08,12.16,0,24.17,1.17,36.05,3.5,11.87,2.34,23.24,5.57,34.09,9.68,10.84,4.12,21.04,8.98,30.58,14.59,9.54,5.61,17.96,11.69,25.25,18.24l2.25-1.12-19.08-51.9c-7.67-2.8-15.76-5.32-24.27-7.57-8.51-2.25-17.35-4.16-26.51-5.75-9.17-1.59-18.42-2.8-27.78-3.64-9.35-.85-18.51-1.26-27.49-1.26-23.19,0-44.75,2.66-64.66,7.99-19.92,5.33-38.16,12.77-54.71,22.31-16.55,9.54-31.28,20.81-44.18,33.81-12.91,13-23.75,27.25-32.54,42.78-8.79,15.53-15.48,31.89-20.06,49.1-4.58,17.21-6.87,34.7-6.87,52.46,0,31.42,5.51,59.99,16.55,85.7,11.03,25.72,26.6,47.74,46.71,66.06,20.1,18.34,44.18,32.5,72.24,42.5,28.05,10,59.09,15.01,93.13,15.01,15.15,0,29.32-1.08,42.5-3.23,13.18-2.16,25.48-5.19,36.89-9.12,11.4-3.93,22.02-8.56,31.84-13.89,9.82-5.33,18.94-11.18,27.35-17.53,1.68-1.49,2.76-3.37,3.23-5.61.46-2.24.7-4.4.7-6.45Z"/>
      <path class="cls-1" d="M2395.37,826.89c-1.12-3.93-2.2-8.79-3.23-14.59-1.03-5.79-1.87-13-2.52-21.6-.66-8.6-1.22-18.84-1.69-30.72-.47-11.88-.7-25.76-.7-41.66v-182.63c0-15.89.23-29.78.7-41.66.46-11.88,1.02-22.16,1.69-30.86.65-8.69,1.49-15.94,2.52-21.74,1.02-5.79,2.1-10.66,3.23-14.59v-1.12h-67.05v1.12c1.12,3.92,2.15,8.8,3.09,14.59.93,5.8,1.77,13.05,2.53,21.74.75,8.7,1.31,18.98,1.68,30.86s.56,25.76.56,41.66v182.63c0,15.89-.19,29.78-.56,41.66-.37,11.88-.94,22.12-1.68,30.72-.75,8.6-1.59,15.8-2.53,21.6-.94,5.8-1.96,10.66-3.09,14.59v1.12h67.05v-1.12Z"/>
      <path class="cls-1" d="M2674.76,829.14c5.51.18,10.52.37,15.01.57,4.48.18,7.86.37,10.1.56l8.14-45.45c-13.28,3.55-27.97,6.64-44.04,9.26-13.85,2.43-30.02,4.58-48.53,6.44-18.52,1.87-38.81,2.81-60.88,2.81v-175.89c12.53,0,25.62.51,39.28,1.55,13.65,1.03,26.27,2.2,37.87,3.5,13.47,1.5,26.65,3.08,39.55,4.77l8.7-40.68c-9.73,1.5-20.95,2.8-33.67,3.93-10.85.93-24.03,1.87-39.55,2.8-15.52.94-32.92,1.5-52.18,1.68v-153.17c6.92-.37,13.75-.75,20.48-1.12,5.8-.37,11.83-.7,18.1-.98,6.26-.28,11.64-.42,16.13-.42,13.28,0,25.01.51,35.21,1.54,10.19,1.03,18.84,2.1,25.95,3.23,8.23,1.31,15.43,2.8,21.6,4.49l13.75-37.31c-4.87.94-14.12,1.69-27.77,2.24-13.66.57-30.11.98-49.37,1.26-19.27.28-40.44.52-63.54.71-23.1.18-46.34.28-69.71.28v1.12c1.12,3.92,2.2,8.79,3.23,14.59,1.02,5.8,1.91,13.05,2.66,21.74.75,8.7,1.31,18.98,1.68,30.86.38,11.88.57,25.77.57,41.66v182.63c0,15.89-.19,29.78-.57,41.66-.37,11.88-.93,22.12-1.68,30.72-.75,8.6-1.64,15.81-2.66,21.6-1.03,5.8-2.1,10.66-3.23,14.59v1.12h121.19c1.87,0,4.91.04,9.12.14,4.21.09,9.02.18,14.45.28,5.42.09,11.18.18,17.25.27,6.08.09,11.88.23,17.4.42Z"/>
      <path class="cls-1" d="M3097.23,821.42c-3.56-2.34-7.25-5.33-11.08-8.98-3.84-3.64-7.86-7.99-12.07-13.05-4.21-5.05-8.74-11.03-13.6-17.95l-98.47-138.3c10.84-4.86,20.66-10.89,29.46-18.09,8.78-7.2,16.31-15.47,22.58-24.83,6.26-9.35,11.13-19.78,14.59-31.28,3.46-11.5,5.19-23.98,5.19-37.45,0-17.21-3.13-32.59-9.4-46.15-6.27-13.56-15.01-25.01-26.23-34.36-11.22-9.35-24.46-16.46-39.69-21.32-15.25-4.86-31.84-7.29-49.8-7.29-19.27,0-35.11.89-47.55,2.67-12.44,1.78-22.3,2.67-29.6,2.67-4.68,0-9.21-.04-13.61-.14-4.4-.09-8.37-.32-11.92-.7l-11.78-1.13v1.13c1.12,3.92,2.2,8.83,3.23,14.73,1.02,5.89,1.86,13.14,2.52,21.74.66,8.6,1.22,18.84,1.69,30.71.47,11.88.7,25.77.7,41.66v182.63c0,16.08-.23,30.01-.7,41.8-.47,11.78-1.03,21.98-1.69,30.58-.66,8.61-1.5,15.81-2.52,21.6-1.03,5.8-2.1,10.66-3.23,14.59v1.12h67.33v-1.12c-1.12-3.93-2.2-8.79-3.23-14.59-1.03-5.79-1.87-13-2.53-21.6-.66-8.6-1.22-18.84-1.68-30.71-.47-11.88-.7-25.76-.7-41.66v-63.13c5.42.94,10.8,1.6,16.13,1.97,5.32.37,10.61.56,15.85.56,4.48,0,8.88-.14,13.18-.42,4.31-.27,8.6-.6,12.91-.98l99.31,139.99c4.11,5.8,7.72,11.64,10.8,17.53,3.08,5.89,4.91,10.61,5.47,14.16h81.07v-1.12c-3.74-1.31-7.39-3.13-10.94-5.47ZM2922.46,630.1c-11.6,4.2-24.41,6.31-38.44,6.31-4.86,0-9.91-.23-15.14-.71-5.24-.46-10.38-1.26-15.43-2.38v-185.71c3.93-1.5,9.72-2.9,17.4-4.21,7.67-1.31,17.95-1.97,30.85-1.97s23.84,2.2,33.38,6.59c9.54,4.39,17.44,10.57,23.71,18.51,6.26,7.95,10.98,17.63,14.17,29.04,3.18,11.41,4.77,24.12,4.77,38.15,0,17.21-2.25,32.22-6.73,45.02-4.49,12.82-10.8,23.52-18.94,32.12-8.14,8.61-18,15.01-29.6,19.22Z"/>
    </g>
    <path class="cls-1" d="M0,343.36c0,.79,0,1.57.01,2.35,0,.6,0,1.19.02,1.79.01.95.03,1.91.05,2.86,0,.43.02.86.03,1.29.03,1.1.06,2.2.1,3.3.01.29.02.57.03.86.05,1.24.1,2.47.16,3.71,0,.15.01.3.02.45.07,1.36.14,2.72.22,4.08,0,.03,0,.06,0,.08,1.81,29.67,7.39,58.64,16.53,86.33.01.04.03.08.04.13.39,1.18.79,2.36,1.19,3.54.05.15.1.3.15.46.36,1.05.73,2.1,1.1,3.15.1.28.19.56.29.83.33.92.66,1.83,1,2.74.15.41.29.81.45,1.22.28.76.58,1.53.87,2.29.21.55.42,1.11.63,1.66.23.6.47,1.19.7,1.79.28.71.56,1.43.84,2.14.17.42.34.84.51,1.26.36.88.71,1.76,1.08,2.64.1.24.2.47.3.71.44,1.06.89,2.12,1.34,3.18.01.03.02.05.03.08,16.96,39.41,41.43,75.64,72.68,106.89,64.41,64.41,149.94,100.02,240.98,100.38.47,0,.94.02,1.41.02,1.41,0,2.81-.02,4.22-.04v221.07c-5.11-12.24-11.12-24.88-18.17-37.64-24.79-44.82-57.37-81.52-96.86-109.09-49.24-34.38-109.16-54.41-178.12-59.55l-15.16-1.13.05,15.2c0,1.6.28,39.67,12.73,89.44,16.59,66.33,47.24,121.92,88.63,160.76,50.38,47.27,116.52,71.15,196.88,71.15,4.05,0,8.13-.07,12.25-.19,6.18-.14,12.34-.44,18.46-.9l9.13-.55-.02-.26c78.18-7.97,150.64-42.27,206.96-98.59,39.4-39.4,68-86.72,84.37-138.36h-29.65c-15.39,44.08-40.62,84.48-74.61,118.47-51.4,51.4-117.46,82.81-188.75,90.36v-323.03c24.81-3.34,80.13-13.91,137.54-45.65,44.82-24.78,81.52-57.37,109.09-96.85,34.38-49.24,54.41-109.17,59.55-178.12l1.13-15.16-15.2.05c-1.6,0-39.66.28-89.44,12.73-66.33,16.59-121.92,47.24-160.76,88.63-49.64,52.9-73.47,123.21-70.95,209.1-1.1.01-2.2.04-3.3.04-.47,0-.94-.02-1.41-.02-83.52-.36-161.99-33.05-221.09-92.15-1-1-1.99-2-2.97-3.01h0c-27.25-27.99-48.68-60.14-63.7-94.98-.04-.09-.08-.18-.12-.27-.37-.87-.74-1.74-1.1-2.61-.13-.32-.27-.64-.4-.96-.28-.66-.54-1.33-.82-2-.22-.53-.43-1.06-.65-1.59-.19-.48-.38-.97-.57-1.46-.28-.71-.57-1.43-.84-2.14-.12-.32-.24-.65-.37-.97-.34-.88-.68-1.77-1.01-2.66-.06-.16-.12-.32-.18-.49-.39-1.05-.77-2.1-1.15-3.15,0-.03-.02-.05-.03-.08-10.72-29.99-16.85-61.71-18.05-94.3,0-.07,0-.15,0-.22-.04-1.19-.08-2.39-.11-3.58,0-.22,0-.45-.01-.67-.02-1.05-.04-2.09-.06-3.14,0-.38,0-.75-.01-1.13,0-.89-.02-1.78-.02-2.67,0-.55,0-1.09,0-1.64,0-.72,0-1.44.01-2.15,0-.73.02-1.45.03-2.18,0-.54.02-1.08.03-1.62.02-.88.05-1.77.07-2.65.01-.39.02-.78.04-1.16.03-1.02.08-2.04.12-3.06.01-.25.02-.5.03-.75.05-1.15.11-2.3.18-3.44,0-.12.01-.24.02-.36.07-1.27.15-2.53.24-3.79,0,0,0-.01,0-.02,3.19-45.45,16-88.97,37.43-128.18,0-.01.01-.02.02-.03.6-1.09,1.2-2.19,1.82-3.27.02-.03.04-.06.05-.1.6-1.07,1.21-2.13,1.82-3.2.03-.05.06-.1.08-.15.61-1.05,1.22-2.09,1.84-3.13.04-.07.08-.13.12-.2.61-1.03,1.23-2.05,1.85-3.07.05-.08.09-.15.14-.23.62-1.01,1.24-2.01,1.87-3.01.05-.09.11-.17.16-.26.63-.99,1.26-1.98,1.9-2.97.06-.09.12-.18.18-.27.64-.99,1.28-1.97,1.93-2.95.06-.09.12-.18.18-.27.65-.98,1.31-1.96,1.98-2.94.06-.08.11-.16.17-.25.67-.99,1.35-1.97,2.04-2.95.05-.07.1-.14.15-.21.7-.99,1.4-1.99,2.11-2.97.04-.05.08-.11.11-.16.72-1.01,1.45-2.01,2.19-3.01.02-.03.05-.07.07-.1.76-1.02,1.52-2.04,2.29-3.06,0,0,0,0,.01-.01,9.34-12.34,19.65-24.08,30.89-35.12,38.66-37.97,85.37-64.77,136.2-78.82.01,0,.03,0,.04-.01,1.18-.33,2.37-.65,3.56-.96.07-.02.15-.04.22-.06,1.13-.3,2.26-.59,3.39-.87.14-.04.29-.07.43-.11,1.07-.27,2.13-.53,3.2-.78.21-.05.42-.1.62-.15,1.01-.24,2.02-.47,3.03-.7.26-.06.53-.12.79-.17.96-.21,1.92-.42,2.88-.63.32-.07.64-.13.97-.2.91-.19,1.81-.38,2.72-.56.38-.08.76-.15,1.14-.22.86-.17,1.71-.34,2.57-.5.43-.08.86-.16,1.29-.24.81-.15,1.62-.3,2.44-.44.48-.08.95-.16,1.43-.24.77-.13,1.54-.26,2.31-.39.52-.08,1.03-.16,1.55-.24.74-.12,1.47-.23,2.21-.35.54-.08,1.08-.16,1.62-.23.72-.1,1.44-.21,2.16-.31.55-.08,1.1-.15,1.65-.22.71-.09,1.43-.19,2.14-.28.54-.07,1.08-.13,1.61-.19.73-.09,1.46-.18,2.2-.26.49-.06.98-.11,1.47-.16.78-.09,1.57-.17,2.35-.25.39-.04.79-.07,1.18-.11.89-.09,1.78-.17,2.67-.25.2-.02.4-.03.61-.05,8.69-.76,17.46-1.16,26.27-1.2,1.46,0,2.93,0,4.4,0,9.54.09,19.02.6,28.4,1.52V1.41c-9.31-.84-18.7-1.31-28.15-1.39-1.5-.01-3-.01-4.49,0h0c-8.1.03-16.16.34-24.17.93-.38.03-.77.05-1.15.08-.75.06-1.5.12-2.25.19-.65.05-1.31.1-1.96.16-.6.05-1.21.11-1.81.17-.8.07-1.59.15-2.38.23-.54.05-1.07.11-1.6.17-.86.09-1.71.18-2.57.28-.5.06-1.01.12-1.51.18-.88.1-1.77.21-2.65.32-.5.06-.99.13-1.49.2-.88.11-1.77.23-2.65.35-.52.07-1.04.15-1.56.22-.85.12-1.71.24-2.56.37-.55.08-1.1.17-1.65.26-.82.13-1.64.25-2.45.39-.59.1-1.17.2-1.76.3-.78.13-1.55.26-2.33.4-.63.11-1.26.23-1.89.34-.72.13-1.45.26-2.17.4-.69.13-1.37.26-2.06.4-.66.13-1.33.26-1.99.39-.74.15-1.48.3-2.23.46-.6.12-1.2.25-1.8.37-.8.17-1.6.35-2.41.53-.53.12-1.07.23-1.6.35-.86.19-1.72.4-2.58.6-.47.11-.94.22-1.41.33-.92.22-1.85.45-2.77.67-.4.1-.8.2-1.2.3-.99.25-1.97.5-2.96.76-.33.09-.66.17-.99.26-1.06.28-2.11.56-3.16.85-.25.07-.51.14-.76.21-1.12.31-2.24.63-3.35.95-.19.05-.37.11-.56.16-1.18.34-2.36.69-3.54,1.05-.12.04-.23.07-.35.11-1.24.38-2.48.76-3.72,1.15-.05.02-.1.03-.15.05-51.82,16.35-99.29,45.02-138.81,84.54-7.36,7.36-14.33,14.99-20.93,22.88,0,.01-.02.02-.03.03-.89,1.06-1.77,2.12-2.64,3.19-.05.06-.1.12-.15.18-.83,1.02-1.66,2.05-2.48,3.08-.08.1-.16.2-.24.3-.79.99-1.57,1.99-2.35,2.99-.11.14-.21.27-.32.41-.75.97-1.49,1.94-2.23,2.91-.13.17-.25.34-.38.51-.72.95-1.43,1.9-2.13,2.85-.14.19-.28.38-.42.57-.69.94-1.37,1.87-2.05,2.81-.15.21-.3.42-.45.64-.66.93-1.32,1.85-1.97,2.78-.16.22-.31.45-.47.67-.64.92-1.29,1.85-1.92,2.78-.16.23-.31.46-.47.69-.63.93-1.26,1.86-1.88,2.79-.15.23-.31.46-.46.7-.62.93-1.23,1.87-1.84,2.81-.15.23-.29.46-.44.69-.61.95-1.22,1.9-1.82,2.85-.14.22-.28.44-.41.66-.6.96-1.21,1.93-1.8,2.9-.13.21-.26.42-.39.64-.6.98-1.2,1.97-1.78,2.95-.12.2-.23.4-.35.6-.6,1.01-1.19,2.01-1.78,3.03-.1.18-.2.35-.3.53-.6,1.04-1.19,2.08-1.78,3.12-.08.15-.17.3-.25.45-.6,1.07-1.2,2.15-1.79,3.22-.07.12-.13.25-.2.37-.6,1.11-1.2,2.21-1.79,3.33-.05.09-.1.19-.15.28-.61,1.14-1.21,2.29-1.8,3.44-.03.07-.07.13-.1.2-.61,1.18-1.21,2.36-1.8,3.55-.02.03-.03.07-.05.1C15.32,230.87,3.28,275.84.59,322.57c0,.04,0,.08,0,.12-.08,1.35-.15,2.69-.21,4.04,0,.16-.01.32-.02.48-.05,1.23-.1,2.45-.15,3.68-.01.29-.02.59-.03.88-.03,1.09-.07,2.19-.09,3.28,0,.44-.02.89-.02,1.33-.02.94-.03,1.89-.04,2.83,0,.16,0,.32,0,.47,0,.45,0,.9,0,1.35,0,.57-.01,1.14-.01,1.72,0,.2,0,.4,0,.6ZM341.38,1007.5c-1.86,0-3.72-.04-5.57-.07v.14c-72.36-.25-131.63-21.52-176.32-63.39-73.1-68.48-88.52-174.73-91.75-214.35,56.89,6.43,106.49,24.13,147.63,52.72,35.9,24.94,65.63,58.29,88.36,99.1,28.55,51.27,38.91,101.85,42.44,125.79-1.59.02-3.18.06-4.79.06ZM437.42,467.67c68.48-73.1,174.73-88.52,214.35-91.76-6.43,56.89-24.13,106.49-52.72,147.64-24.94,35.9-58.29,65.63-99.1,88.36-51.29,28.56-101.9,38.91-125.83,42.44-1.82-77.13,19.44-139.88,63.29-186.68Z"/>
  </g>
</svg>